<svg width="608" height="604" viewBox="0 0 608 604" fill="none" xmlns="http://www.w3.org/2000/svg">
<path d="M304.001 604.001C471.895 604.001 608.001 468.945 608.001 302.345C608.001 135.745 471.895 0.688477 304.001 0.688477C136.106 0.688477 0 135.745 0 302.345C0 468.945 136.106 604.001 304.001 604.001Z" fill="#14DA6F"/>
<path opacity="0.86" d="M304.001 604.001C471.895 604.001 608.001 468.945 608.001 302.345C608.001 135.745 471.895 0.688477 304.001 0.688477C136.106 0.688477 0 135.745 0 302.345C0 468.945 136.106 604.001 304.001 604.001Z" fill="white"/>
<path opacity="0.1" d="M143.961 306.984L207.331 396.483L101.378 413.974L65.8905 366.458L143.961 306.984Z" fill="#14DA6F"/>
<path opacity="0.1" d="M552.055 169.353L509.471 134.171L462.155 200.612L476.957 217.605L552.055 169.353Z" fill="#14DA6F"/>
<path opacity="0.1" d="M116.755 200.612L155.914 171.605L188.941 224.858L150.832 244.721L116.755 200.612Z" fill="#14DA6F"/>
<path opacity="0.1" d="M347.86 522.308L392.924 485.921L420.755 522.308L370.569 556.346L347.86 522.308Z" fill="#14DA6F"/>
<path opacity="0.1" d="M167.444 259.385L208.338 229.737L240.957 272.297L223.214 290.279L249.641 324.108L274.078 306.984L302.551 342.722L249.641 381.456L167.444 259.385Z" fill="#14DA6F"/>
<path d="M607.553 318.82L455.258 421.137L525.41 509.045C523.324 511.255 521.201 513.428 519.042 515.565L447.852 426.356L324.157 517.854L378.943 594.764C375.789 595.564 372.615 596.307 369.42 596.994L314.202 519.464L236.724 412.258L101.086 439.375L111.939 536.172C108.513 533.402 105.154 530.559 101.862 527.643L91.7757 437.665L1.69282 334.258C1.1487 329.239 0.738922 324.183 0.463501 319.09L97.8215 430.856L230.92 404.239L44.1114 145.763C45.8042 142.994 47.5441 140.254 49.3309 137.544L240.671 402.289L241.719 402.08L381.297 304.622L282.428 177.259L296.706 0.782367C299.135 0.722375 301.566 0.692383 304.001 0.692383C304.606 0.692383 305.211 0.692377 305.815 0.702376L291.749 174.519L388.724 299.433L576.437 168.37C577.807 171.09 579.13 173.836 580.407 176.609L246.203 409.948L318.894 510.525L449.494 413.92L449.615 414.07L607.946 307.694C607.885 311.421 607.754 315.121 607.553 318.82Z" fill="white"/>
</svg>
